<mxfile host="app.diagrams.net" modified="2021-10-29T15:15:05.862Z" agent="5.0 (Windows)" etag="RxMGRzsowyaQXeZA16mh" version="15.6.2" type="github">
  <diagram id="jD6TNM_BQeUBffr7h1Vu" name="Страница 1">
    <mxGraphModel dx="2048" dy="654" grid="1" gridSize="10" guides="1" tooltips="1" connect="1" arrows="1" fold="1" page="1" pageScale="1" pageWidth="827" pageHeight="1169" math="0" shadow="0">
      <root>
        <mxCell id="0" />
        <mxCell id="1" parent="0" />
        <mxCell id="icmjAIZ1aDsR7eF-hHrB-108" style="rounded=0;orthogonalLoop=1;jettySize=auto;html=1;startArrow=none;startFill=0;endArrow=none;endFill=0;fillColor=#f8cecc;strokeColor=#b85450;" parent="1" source="icmjAIZ1aDsR7eF-hHrB-1" target="icmjAIZ1aDsR7eF-hHrB-5" edge="1">
          <mxGeometry relative="1" as="geometry">
            <mxPoint x="225.0588235294117" y="100" as="sourcePoint" />
            <mxPoint x="225" y="150" as="targetPoint" />
          </mxGeometry>
        </mxCell>
        <mxCell id="tD3QRTbrXEDpXQR9bQmA-1" style="edgeStyle=none;rounded=0;orthogonalLoop=1;jettySize=auto;html=1;endArrow=none;endFill=0;fillColor=#f8cecc;strokeColor=#b85450;" edge="1" parent="1" source="icmjAIZ1aDsR7eF-hHrB-1" target="icmjAIZ1aDsR7eF-hHrB-6">
          <mxGeometry relative="1" as="geometry" />
        </mxCell>
        <mxCell id="tD3QRTbrXEDpXQR9bQmA-2" style="edgeStyle=none;rounded=0;orthogonalLoop=1;jettySize=auto;html=1;endArrow=none;endFill=0;fillColor=#f8cecc;strokeColor=#b85450;" edge="1" parent="1" source="icmjAIZ1aDsR7eF-hHrB-1" target="icmjAIZ1aDsR7eF-hHrB-7">
          <mxGeometry relative="1" as="geometry" />
        </mxCell>
        <mxCell id="tD3QRTbrXEDpXQR9bQmA-7" style="edgeStyle=none;rounded=0;orthogonalLoop=1;jettySize=auto;html=1;endArrow=none;endFill=0;fillColor=#f8cecc;strokeColor=#b85450;" edge="1" parent="1" source="icmjAIZ1aDsR7eF-hHrB-1" target="tD3QRTbrXEDpXQR9bQmA-4">
          <mxGeometry relative="1" as="geometry" />
        </mxCell>
        <mxCell id="icmjAIZ1aDsR7eF-hHrB-1" value="Студент&lt;br&gt;" style="shape=umlActor;verticalLabelPosition=bottom;verticalAlign=top;html=1;outlineConnect=0;fillColor=#f8cecc;strokeColor=#b85450;" parent="1" vertex="1">
          <mxGeometry x="210" width="30" height="60" as="geometry" />
        </mxCell>
        <mxCell id="icmjAIZ1aDsR7eF-hHrB-5" value="&lt;span&gt;Вход/выход из общежития&lt;/span&gt;" style="rounded=0;whiteSpace=wrap;html=1;fillColor=#f8cecc;strokeColor=#b85450;" parent="1" vertex="1">
          <mxGeometry x="30" y="270" width="90" height="40" as="geometry" />
        </mxCell>
        <mxCell id="icmjAIZ1aDsR7eF-hHrB-6" value="&lt;span&gt;Регистрация в общежитии&lt;/span&gt;" style="rounded=0;whiteSpace=wrap;html=1;fillColor=#f8cecc;strokeColor=#b85450;" parent="1" vertex="1">
          <mxGeometry x="180" y="270" width="90" height="40" as="geometry" />
        </mxCell>
        <mxCell id="icmjAIZ1aDsR7eF-hHrB-7" value="&lt;span&gt;Замена пропуска по истечении&lt;/span&gt;" style="rounded=0;whiteSpace=wrap;html=1;fillColor=#f8cecc;strokeColor=#b85450;" parent="1" vertex="1">
          <mxGeometry x="330" y="270" width="90" height="40" as="geometry" />
        </mxCell>
        <mxCell id="icmjAIZ1aDsR7eF-hHrB-77" style="rounded=0;orthogonalLoop=1;jettySize=auto;html=1;entryX=0.5;entryY=1;entryDx=0;entryDy=0;startArrow=none;startFill=0;endArrow=none;endFill=0;fillColor=#f8cecc;strokeColor=#b85450;" parent="1" source="icmjAIZ1aDsR7eF-hHrB-11" target="icmjAIZ1aDsR7eF-hHrB-7" edge="1">
          <mxGeometry relative="1" as="geometry" />
        </mxCell>
        <mxCell id="icmjAIZ1aDsR7eF-hHrB-78" style="rounded=0;orthogonalLoop=1;jettySize=auto;html=1;entryX=0.5;entryY=1;entryDx=0;entryDy=0;startArrow=none;startFill=0;endArrow=none;endFill=0;fillColor=#f8cecc;strokeColor=#b85450;" parent="1" source="icmjAIZ1aDsR7eF-hHrB-11" target="icmjAIZ1aDsR7eF-hHrB-6" edge="1">
          <mxGeometry relative="1" as="geometry" />
        </mxCell>
        <mxCell id="icmjAIZ1aDsR7eF-hHrB-79" style="rounded=0;orthogonalLoop=1;jettySize=auto;html=1;entryX=0.5;entryY=1;entryDx=0;entryDy=0;startArrow=none;startFill=0;endArrow=none;endFill=0;fillColor=#f8cecc;strokeColor=#b85450;" parent="1" source="icmjAIZ1aDsR7eF-hHrB-11" target="icmjAIZ1aDsR7eF-hHrB-5" edge="1">
          <mxGeometry relative="1" as="geometry">
            <mxPoint x="225" y="410" as="sourcePoint" />
          </mxGeometry>
        </mxCell>
        <mxCell id="icmjAIZ1aDsR7eF-hHrB-11" value="Вахтер" style="shape=umlActor;verticalLabelPosition=bottom;verticalAlign=top;html=1;outlineConnect=0;fillColor=#dae8fc;strokeColor=#6c8ebf;" parent="1" vertex="1">
          <mxGeometry x="210" y="380" width="30" height="60" as="geometry" />
        </mxCell>
        <mxCell id="icmjAIZ1aDsR7eF-hHrB-89" style="edgeStyle=orthogonalEdgeStyle;rounded=0;orthogonalLoop=1;jettySize=auto;html=1;startArrow=classic;startFill=1;endArrow=none;endFill=0;fillColor=#dae8fc;strokeColor=#6c8ebf;" parent="1" source="icmjAIZ1aDsR7eF-hHrB-30" target="icmjAIZ1aDsR7eF-hHrB-81" edge="1">
          <mxGeometry relative="1" as="geometry" />
        </mxCell>
        <mxCell id="icmjAIZ1aDsR7eF-hHrB-30" value="Записать время прибытия" style="rounded=0;whiteSpace=wrap;html=1;fillColor=#dae8fc;strokeColor=#6c8ebf;" parent="1" vertex="1">
          <mxGeometry x="345" y="585" width="90" height="40" as="geometry" />
        </mxCell>
        <mxCell id="icmjAIZ1aDsR7eF-hHrB-36" style="edgeStyle=orthogonalEdgeStyle;rounded=0;orthogonalLoop=1;jettySize=auto;html=1;exitX=0.5;exitY=0;exitDx=0;exitDy=0;entryX=0.5;entryY=1;entryDx=0;entryDy=0;startArrow=classicThin;startFill=1;endArrow=none;endFill=0;fillColor=#dae8fc;strokeColor=#6c8ebf;" parent="1" source="icmjAIZ1aDsR7eF-hHrB-34" target="icmjAIZ1aDsR7eF-hHrB-30" edge="1">
          <mxGeometry relative="1" as="geometry" />
        </mxCell>
        <mxCell id="icmjAIZ1aDsR7eF-hHrB-63" style="edgeStyle=orthogonalEdgeStyle;rounded=0;orthogonalLoop=1;jettySize=auto;html=1;startArrow=classic;startFill=1;endArrow=none;endFill=0;fillColor=#fad7ac;strokeColor=#b46504;exitX=0.5;exitY=0;exitDx=0;exitDy=0;entryX=0.5;entryY=1;entryDx=0;entryDy=0;" parent="1" source="icmjAIZ1aDsR7eF-hHrB-59" target="icmjAIZ1aDsR7eF-hHrB-34" edge="1">
          <mxGeometry relative="1" as="geometry">
            <mxPoint x="280" y="840" as="targetPoint" />
          </mxGeometry>
        </mxCell>
        <mxCell id="icmjAIZ1aDsR7eF-hHrB-34" value="&lt;span&gt;База данных времени&lt;br&gt;&amp;nbsp;прибытия&lt;br&gt;&amp;nbsp;и покидания общежития&lt;/span&gt;" style="html=1;dashed=0;whitespace=wrap;shape=partialRectangle;right=0;fillColor=#bac8d3;strokeColor=#23445d;" parent="1" vertex="1">
          <mxGeometry x="320" y="670" width="140" height="70" as="geometry" />
        </mxCell>
        <mxCell id="icmjAIZ1aDsR7eF-hHrB-90" style="edgeStyle=orthogonalEdgeStyle;rounded=0;orthogonalLoop=1;jettySize=auto;html=1;startArrow=classic;startFill=1;endArrow=none;endFill=0;fillColor=#dae8fc;strokeColor=#6c8ebf;" parent="1" source="icmjAIZ1aDsR7eF-hHrB-37" target="icmjAIZ1aDsR7eF-hHrB-81" edge="1">
          <mxGeometry relative="1" as="geometry" />
        </mxCell>
        <mxCell id="icmjAIZ1aDsR7eF-hHrB-37" value="&lt;span&gt;Выдача&lt;br&gt;&amp;nbsp;пропусков&lt;/span&gt;" style="html=1;dashed=0;whitespace=wrap;fillColor=#dae8fc;strokeColor=#6c8ebf;" parent="1" vertex="1">
          <mxGeometry x="25" y="585" width="90" height="40" as="geometry" />
        </mxCell>
        <mxCell id="icmjAIZ1aDsR7eF-hHrB-43" style="edgeStyle=orthogonalEdgeStyle;rounded=0;orthogonalLoop=1;jettySize=auto;html=1;entryX=0.5;entryY=1;entryDx=0;entryDy=0;startArrow=classic;startFill=1;endArrow=none;endFill=0;fillColor=#dae8fc;strokeColor=#6c8ebf;" parent="1" source="icmjAIZ1aDsR7eF-hHrB-40" target="icmjAIZ1aDsR7eF-hHrB-37" edge="1">
          <mxGeometry relative="1" as="geometry" />
        </mxCell>
        <mxCell id="icmjAIZ1aDsR7eF-hHrB-64" style="edgeStyle=orthogonalEdgeStyle;rounded=0;orthogonalLoop=1;jettySize=auto;html=1;entryX=0.5;entryY=0;entryDx=0;entryDy=0;startArrow=classic;startFill=1;endArrow=none;endFill=0;fillColor=#fad7ac;strokeColor=#b46504;" parent="1" source="icmjAIZ1aDsR7eF-hHrB-40" target="icmjAIZ1aDsR7eF-hHrB-60" edge="1">
          <mxGeometry relative="1" as="geometry" />
        </mxCell>
        <mxCell id="icmjAIZ1aDsR7eF-hHrB-40" value="База данных&lt;br&gt;&amp;nbsp;пропусков" style="html=1;dashed=0;whitespace=wrap;shape=partialRectangle;right=0;fillColor=#bac8d3;strokeColor=#23445d;" parent="1" vertex="1">
          <mxGeometry x="20" y="700" width="100" height="30" as="geometry" />
        </mxCell>
        <mxCell id="icmjAIZ1aDsR7eF-hHrB-76" style="edgeStyle=orthogonalEdgeStyle;rounded=0;orthogonalLoop=1;jettySize=auto;html=1;entryX=1;entryY=0.5;entryDx=0;entryDy=0;startArrow=none;startFill=0;endArrow=none;endFill=0;fillColor=#d5e8d4;gradientColor=#97d077;strokeColor=#82b366;" parent="1" source="icmjAIZ1aDsR7eF-hHrB-44" target="icmjAIZ1aDsR7eF-hHrB-69" edge="1">
          <mxGeometry relative="1" as="geometry" />
        </mxCell>
        <mxCell id="pvDZKcuIj3iCTg0gMcYO-24" style="edgeStyle=orthogonalEdgeStyle;rounded=0;orthogonalLoop=1;jettySize=auto;html=1;entryX=0;entryY=0.5;entryDx=0;entryDy=0;fillColor=#fad7ac;strokeColor=#b46504;" parent="1" source="icmjAIZ1aDsR7eF-hHrB-44" target="icmjAIZ1aDsR7eF-hHrB-55" edge="1">
          <mxGeometry relative="1" as="geometry" />
        </mxCell>
        <mxCell id="icmjAIZ1aDsR7eF-hHrB-44" value="Комендант" style="shape=umlActor;verticalLabelPosition=bottom;verticalAlign=top;html=1;outlineConnect=0;fillColor=#fad7ac;strokeColor=#b46504;" parent="1" vertex="1">
          <mxGeometry x="210" y="1120" width="30" height="60" as="geometry" />
        </mxCell>
        <mxCell id="icmjAIZ1aDsR7eF-hHrB-50" style="edgeStyle=orthogonalEdgeStyle;rounded=0;orthogonalLoop=1;jettySize=auto;html=1;startArrow=none;startFill=0;endArrow=none;endFill=0;fillColor=#fad7ac;strokeColor=#b46504;" parent="1" source="icmjAIZ1aDsR7eF-hHrB-91" target="icmjAIZ1aDsR7eF-hHrB-44" edge="1">
          <mxGeometry relative="1" as="geometry" />
        </mxCell>
        <mxCell id="icmjAIZ1aDsR7eF-hHrB-97" style="edgeStyle=orthogonalEdgeStyle;rounded=0;orthogonalLoop=1;jettySize=auto;html=1;startArrow=classic;startFill=1;endArrow=none;endFill=0;fillColor=#fad7ac;strokeColor=#b46504;" parent="1" source="icmjAIZ1aDsR7eF-hHrB-45" target="icmjAIZ1aDsR7eF-hHrB-91" edge="1">
          <mxGeometry relative="1" as="geometry" />
        </mxCell>
        <mxCell id="icmjAIZ1aDsR7eF-hHrB-45" value="&lt;div&gt;Ведение списка&lt;/div&gt;&lt;div&gt;проживающих&lt;/div&gt;" style="html=1;dashed=0;whitespace=wrap;fillColor=#fad7ac;strokeColor=#b46504;" parent="1" vertex="1">
          <mxGeometry x="30" y="990" width="90" height="35" as="geometry" />
        </mxCell>
        <mxCell id="icmjAIZ1aDsR7eF-hHrB-49" style="edgeStyle=orthogonalEdgeStyle;rounded=0;orthogonalLoop=1;jettySize=auto;html=1;exitX=0.5;exitY=0;exitDx=0;exitDy=0;entryX=0.5;entryY=1;entryDx=0;entryDy=0;startArrow=classic;startFill=1;endArrow=none;endFill=0;fillColor=#fad7ac;strokeColor=#b46504;" parent="1" source="icmjAIZ1aDsR7eF-hHrB-48" target="icmjAIZ1aDsR7eF-hHrB-45" edge="1">
          <mxGeometry relative="1" as="geometry" />
        </mxCell>
        <mxCell id="icmjAIZ1aDsR7eF-hHrB-48" value="База&lt;br&gt;&amp;nbsp;проживающих" style="html=1;dashed=0;whitespace=wrap;shape=partialRectangle;right=0;fillColor=#bac8d3;strokeColor=#23445d;" parent="1" vertex="1">
          <mxGeometry x="25" y="1070" width="100" height="30" as="geometry" />
        </mxCell>
        <mxCell id="icmjAIZ1aDsR7eF-hHrB-52" style="edgeStyle=orthogonalEdgeStyle;rounded=0;orthogonalLoop=1;jettySize=auto;html=1;entryX=0.5;entryY=0;entryDx=0;entryDy=0;entryPerimeter=0;startArrow=none;startFill=0;endArrow=none;endFill=0;fillColor=#fad7ac;strokeColor=#b46504;" parent="1" source="icmjAIZ1aDsR7eF-hHrB-91" target="icmjAIZ1aDsR7eF-hHrB-44" edge="1">
          <mxGeometry relative="1" as="geometry" />
        </mxCell>
        <mxCell id="icmjAIZ1aDsR7eF-hHrB-96" style="edgeStyle=orthogonalEdgeStyle;rounded=0;orthogonalLoop=1;jettySize=auto;html=1;startArrow=classic;startFill=1;endArrow=none;endFill=0;fillColor=#fad7ac;strokeColor=#b46504;" parent="1" source="icmjAIZ1aDsR7eF-hHrB-51" target="icmjAIZ1aDsR7eF-hHrB-91" edge="1">
          <mxGeometry relative="1" as="geometry" />
        </mxCell>
        <mxCell id="icmjAIZ1aDsR7eF-hHrB-51" value="&lt;span&gt;Ведение списка&lt;br&gt;&amp;nbsp;комнат&lt;/span&gt;" style="html=1;dashed=0;whitespace=wrap;fillColor=#fad7ac;strokeColor=#b46504;" parent="1" vertex="1">
          <mxGeometry x="330" y="990" width="90" height="35" as="geometry" />
        </mxCell>
        <mxCell id="icmjAIZ1aDsR7eF-hHrB-54" style="edgeStyle=orthogonalEdgeStyle;rounded=0;orthogonalLoop=1;jettySize=auto;html=1;entryX=0.5;entryY=1;entryDx=0;entryDy=0;startArrow=classic;startFill=1;endArrow=none;endFill=0;fillColor=#fad7ac;strokeColor=#b46504;" parent="1" source="icmjAIZ1aDsR7eF-hHrB-53" target="icmjAIZ1aDsR7eF-hHrB-51" edge="1">
          <mxGeometry relative="1" as="geometry" />
        </mxCell>
        <mxCell id="icmjAIZ1aDsR7eF-hHrB-58" style="edgeStyle=orthogonalEdgeStyle;rounded=0;orthogonalLoop=1;jettySize=auto;html=1;startArrow=classic;startFill=1;endArrow=none;endFill=0;fillColor=#fad7ac;strokeColor=#b46504;exitX=0.5;exitY=0;exitDx=0;exitDy=0;entryX=0.5;entryY=1;entryDx=0;entryDy=0;" parent="1" source="icmjAIZ1aDsR7eF-hHrB-55" target="icmjAIZ1aDsR7eF-hHrB-53" edge="1">
          <mxGeometry relative="1" as="geometry">
            <mxPoint x="310" y="1170" as="targetPoint" />
          </mxGeometry>
        </mxCell>
        <mxCell id="icmjAIZ1aDsR7eF-hHrB-53" value="База&lt;br&gt;&amp;nbsp;комнат" style="html=1;dashed=0;whitespace=wrap;shape=partialRectangle;right=0;fillColor=#bac8d3;strokeColor=#23445d;" parent="1" vertex="1">
          <mxGeometry x="325" y="1070" width="100" height="30" as="geometry" />
        </mxCell>
        <mxCell id="pvDZKcuIj3iCTg0gMcYO-23" style="edgeStyle=orthogonalEdgeStyle;rounded=0;orthogonalLoop=1;jettySize=auto;html=1;entryX=0.5;entryY=1;entryDx=0;entryDy=0;fillColor=#fad7ac;strokeColor=#b46504;" parent="1" source="icmjAIZ1aDsR7eF-hHrB-55" target="icmjAIZ1aDsR7eF-hHrB-69" edge="1">
          <mxGeometry relative="1" as="geometry">
            <Array as="points">
              <mxPoint x="375" y="1390" />
              <mxPoint x="100" y="1390" />
            </Array>
          </mxGeometry>
        </mxCell>
        <mxCell id="icmjAIZ1aDsR7eF-hHrB-55" value="&lt;span&gt;Узнать номер&lt;br&gt;&amp;nbsp;комнаты&lt;/span&gt;" style="html=1;dashed=0;whitespace=wrap;fillColor=#fad7ac;strokeColor=#b46504;" parent="1" vertex="1">
          <mxGeometry x="330" y="1230" width="90" height="40" as="geometry" />
        </mxCell>
        <mxCell id="icmjAIZ1aDsR7eF-hHrB-62" style="edgeStyle=orthogonalEdgeStyle;rounded=0;orthogonalLoop=1;jettySize=auto;html=1;entryX=0.5;entryY=0;entryDx=0;entryDy=0;entryPerimeter=0;startArrow=none;startFill=0;endArrow=none;endFill=0;fillColor=#fad7ac;strokeColor=#b46504;" parent="1" source="icmjAIZ1aDsR7eF-hHrB-91" target="icmjAIZ1aDsR7eF-hHrB-44" edge="1">
          <mxGeometry relative="1" as="geometry" />
        </mxCell>
        <mxCell id="icmjAIZ1aDsR7eF-hHrB-95" style="edgeStyle=orthogonalEdgeStyle;rounded=0;orthogonalLoop=1;jettySize=auto;html=1;startArrow=classic;startFill=1;endArrow=none;endFill=0;fillColor=#fad7ac;strokeColor=#b46504;" parent="1" source="icmjAIZ1aDsR7eF-hHrB-59" target="icmjAIZ1aDsR7eF-hHrB-91" edge="1">
          <mxGeometry relative="1" as="geometry" />
        </mxCell>
        <mxCell id="icmjAIZ1aDsR7eF-hHrB-59" value="&lt;span&gt;Контроль прибытия&lt;br&gt;&amp;nbsp;и &lt;br&gt;отбытия студентов&lt;/span&gt;" style="html=1;dashed=0;whitespace=wrap;fillColor=#fad7ac;strokeColor=#b46504;" parent="1" vertex="1">
          <mxGeometry x="330" y="900" width="120" height="60" as="geometry" />
        </mxCell>
        <mxCell id="icmjAIZ1aDsR7eF-hHrB-61" style="edgeStyle=orthogonalEdgeStyle;rounded=0;orthogonalLoop=1;jettySize=auto;html=1;startArrow=none;startFill=0;endArrow=none;endFill=0;fillColor=#fad7ac;strokeColor=#b46504;" parent="1" source="icmjAIZ1aDsR7eF-hHrB-91" target="icmjAIZ1aDsR7eF-hHrB-44" edge="1">
          <mxGeometry relative="1" as="geometry" />
        </mxCell>
        <mxCell id="icmjAIZ1aDsR7eF-hHrB-94" style="edgeStyle=orthogonalEdgeStyle;rounded=0;orthogonalLoop=1;jettySize=auto;html=1;startArrow=classic;startFill=1;endArrow=none;endFill=0;fillColor=#fad7ac;strokeColor=#b46504;" parent="1" source="icmjAIZ1aDsR7eF-hHrB-60" target="icmjAIZ1aDsR7eF-hHrB-91" edge="1">
          <mxGeometry relative="1" as="geometry" />
        </mxCell>
        <mxCell id="icmjAIZ1aDsR7eF-hHrB-60" value="&lt;span&gt;Аннулирование&lt;br&gt;&amp;nbsp;пропусков&lt;/span&gt;" style="html=1;dashed=0;whitespace=wrap;fillColor=#fad7ac;strokeColor=#b46504;" parent="1" vertex="1">
          <mxGeometry x="20" y="890" width="100" height="60" as="geometry" />
        </mxCell>
        <mxCell id="icmjAIZ1aDsR7eF-hHrB-101" style="edgeStyle=orthogonalEdgeStyle;rounded=0;orthogonalLoop=1;jettySize=auto;html=1;entryX=0.5;entryY=0;entryDx=0;entryDy=0;entryPerimeter=0;startArrow=none;startFill=0;endArrow=none;endFill=0;fillColor=#d5e8d4;gradientColor=#97d077;strokeColor=#82b366;" parent="1" source="DtwPcJMlD-o3ZfyWHkww-4" target="icmjAIZ1aDsR7eF-hHrB-98" edge="1">
          <mxGeometry relative="1" as="geometry" />
        </mxCell>
        <mxCell id="icmjAIZ1aDsR7eF-hHrB-65" value="Куратор" style="shape=umlActor;verticalLabelPosition=bottom;verticalAlign=top;html=1;outlineConnect=0;labelBackgroundColor=none;fillColor=#d5e8d4;gradientColor=#97d077;strokeColor=#82b366;" parent="1" vertex="1">
          <mxGeometry x="-135" y="1090" width="30" height="60" as="geometry" />
        </mxCell>
        <mxCell id="icmjAIZ1aDsR7eF-hHrB-104" style="edgeStyle=orthogonalEdgeStyle;rounded=0;orthogonalLoop=1;jettySize=auto;html=1;entryX=1;entryY=0.5;entryDx=0;entryDy=0;entryPerimeter=0;startArrow=classic;startFill=1;endArrow=none;endFill=0;fillColor=#d5e8d4;gradientColor=#97d077;strokeColor=#82b366;" parent="1" source="icmjAIZ1aDsR7eF-hHrB-66" target="icmjAIZ1aDsR7eF-hHrB-98" edge="1">
          <mxGeometry relative="1" as="geometry" />
        </mxCell>
        <mxCell id="icmjAIZ1aDsR7eF-hHrB-66" value="&lt;span&gt;Контроль&lt;br&gt;&amp;nbsp;посещения&lt;/span&gt;&lt;br&gt;&lt;span&gt;занятий&lt;/span&gt;" style="html=1;dashed=0;whitespace=wrap;fillColor=#d5e8d4;gradientColor=#97d077;strokeColor=#82b366;" parent="1" vertex="1">
          <mxGeometry x="50" y="1230" width="100" height="50" as="geometry" />
        </mxCell>
        <mxCell id="icmjAIZ1aDsR7eF-hHrB-105" style="edgeStyle=orthogonalEdgeStyle;rounded=0;orthogonalLoop=1;jettySize=auto;html=1;startArrow=classic;startFill=1;endArrow=none;endFill=0;fillColor=#d5e8d4;gradientColor=#97d077;strokeColor=#82b366;" parent="1" source="icmjAIZ1aDsR7eF-hHrB-69" target="icmjAIZ1aDsR7eF-hHrB-98" edge="1">
          <mxGeometry relative="1" as="geometry" />
        </mxCell>
        <mxCell id="icmjAIZ1aDsR7eF-hHrB-69" value="&lt;span&gt;Запрос места&lt;/span&gt;&lt;br&gt;&lt;span&gt;проживания&lt;br&gt;&amp;nbsp;студента&lt;/span&gt;" style="html=1;dashed=0;whitespace=wrap;fillColor=#d5e8d4;gradientColor=#97d077;strokeColor=#82b366;" parent="1" vertex="1">
          <mxGeometry x="50" y="1320" width="100" height="50" as="geometry" />
        </mxCell>
        <mxCell id="icmjAIZ1aDsR7eF-hHrB-81" value="" style="strokeWidth=2;html=1;shape=mxgraph.flowchart.decision;whiteSpace=wrap;fillColor=#dae8fc;strokeColor=#6c8ebf;" parent="1" vertex="1">
          <mxGeometry x="175" y="555" width="100" height="100" as="geometry" />
        </mxCell>
        <mxCell id="icmjAIZ1aDsR7eF-hHrB-83" value="" style="endArrow=none;html=1;rounded=0;edgeStyle=orthogonalEdgeStyle;fillColor=#dae8fc;strokeColor=#6c8ebf;startArrow=none;" parent="1" source="DtwPcJMlD-o3ZfyWHkww-7" target="icmjAIZ1aDsR7eF-hHrB-11" edge="1">
          <mxGeometry relative="1" as="geometry">
            <mxPoint x="100" y="500" as="sourcePoint" />
            <mxPoint x="260" y="500" as="targetPoint" />
          </mxGeometry>
        </mxCell>
        <mxCell id="icmjAIZ1aDsR7eF-hHrB-91" value="" style="strokeWidth=2;html=1;shape=mxgraph.flowchart.decision;whiteSpace=wrap;fillColor=#fad7ac;strokeColor=#b46504;" parent="1" vertex="1">
          <mxGeometry x="175" y="920" width="100" height="100" as="geometry" />
        </mxCell>
        <mxCell id="icmjAIZ1aDsR7eF-hHrB-98" value="" style="strokeWidth=2;html=1;shape=mxgraph.flowchart.decision;whiteSpace=wrap;fillColor=#d5e8d4;gradientColor=#97d077;strokeColor=#82b366;" parent="1" vertex="1">
          <mxGeometry x="-170" y="1250" width="100" height="100" as="geometry" />
        </mxCell>
        <mxCell id="pvDZKcuIj3iCTg0gMcYO-1" value="База&lt;br&gt;посещений" style="html=1;dashed=0;whitespace=wrap;shape=partialRectangle;right=0;fillColor=#bac8d3;strokeColor=#23445d;" parent="1" vertex="1">
          <mxGeometry x="860" y="1235" width="100" height="30" as="geometry" />
        </mxCell>
        <mxCell id="pvDZKcuIj3iCTg0gMcYO-4" style="edgeStyle=orthogonalEdgeStyle;rounded=0;orthogonalLoop=1;jettySize=auto;html=1;entryX=0.5;entryY=0;entryDx=0;entryDy=0;fillColor=#d5e8d4;gradientColor=#97d077;strokeColor=#82b366;" parent="1" source="pvDZKcuIj3iCTg0gMcYO-3" target="icmjAIZ1aDsR7eF-hHrB-66" edge="1">
          <mxGeometry relative="1" as="geometry" />
        </mxCell>
        <mxCell id="pvDZKcuIj3iCTg0gMcYO-3" value="&lt;span&gt;База данных времени&lt;br&gt;&amp;nbsp;прибытия&lt;br&gt;&amp;nbsp;и покидания общежития&lt;/span&gt;" style="html=1;dashed=0;whitespace=wrap;shape=partialRectangle;right=0;fillColor=#bac8d3;strokeColor=#23445d;" parent="1" vertex="1">
          <mxGeometry x="30" y="1130" width="140" height="70" as="geometry" />
        </mxCell>
        <mxCell id="DtwPcJMlD-o3ZfyWHkww-6" style="edgeStyle=none;curved=1;rounded=0;sketch=1;hachureGap=4;orthogonalLoop=1;jettySize=auto;html=1;fontFamily=Architects Daughter;fontSource=https%3A%2F%2Ffonts.googleapis.com%2Fcss%3Ffamily%3DArchitects%2BDaughter;fontSize=16;endArrow=open;startSize=14;endSize=14;sourcePerimeterSpacing=8;targetPerimeterSpacing=8;" parent="1" source="DtwPcJMlD-o3ZfyWHkww-4" target="icmjAIZ1aDsR7eF-hHrB-98" edge="1">
          <mxGeometry relative="1" as="geometry" />
        </mxCell>
        <mxCell id="DtwPcJMlD-o3ZfyWHkww-4" value="Проверка студента" style="rounded=0;whiteSpace=wrap;html=1;sketch=1;hachureGap=4;pointerEvents=0;fontFamily=Architects Daughter;fontSource=https%3A%2F%2Ffonts.googleapis.com%2Fcss%3Ffamily%3DArchitects%2BDaughter;fontSize=20;" parent="1" vertex="1">
          <mxGeometry x="-165" y="1169" width="90" height="41" as="geometry" />
        </mxCell>
        <mxCell id="DtwPcJMlD-o3ZfyWHkww-5" value="" style="edgeStyle=orthogonalEdgeStyle;rounded=0;orthogonalLoop=1;jettySize=auto;html=1;entryX=0.5;entryY=0;entryDx=0;entryDy=0;entryPerimeter=0;startArrow=none;startFill=0;endArrow=none;endFill=0;fillColor=#d5e8d4;gradientColor=#97d077;strokeColor=#82b366;" parent="1" source="icmjAIZ1aDsR7eF-hHrB-65" target="DtwPcJMlD-o3ZfyWHkww-4" edge="1">
          <mxGeometry relative="1" as="geometry">
            <mxPoint x="-120" y="1150" as="sourcePoint" />
            <mxPoint x="-120" y="1250" as="targetPoint" />
          </mxGeometry>
        </mxCell>
        <mxCell id="DtwPcJMlD-o3ZfyWHkww-9" style="edgeStyle=none;curved=1;rounded=0;sketch=1;hachureGap=4;orthogonalLoop=1;jettySize=auto;html=1;fontFamily=Architects Daughter;fontSource=https%3A%2F%2Ffonts.googleapis.com%2Fcss%3Ffamily%3DArchitects%2BDaughter;fontSize=16;endArrow=open;startSize=14;endSize=14;sourcePerimeterSpacing=8;targetPerimeterSpacing=8;" parent="1" source="DtwPcJMlD-o3ZfyWHkww-7" target="icmjAIZ1aDsR7eF-hHrB-81" edge="1">
          <mxGeometry relative="1" as="geometry" />
        </mxCell>
        <mxCell id="DtwPcJMlD-o3ZfyWHkww-7" value="Обращение к вахтеру" style="rounded=0;whiteSpace=wrap;html=1;sketch=1;hachureGap=4;pointerEvents=0;fontFamily=Architects Daughter;fontSource=https%3A%2F%2Ffonts.googleapis.com%2Fcss%3Ffamily%3DArchitects%2BDaughter;fontSize=20;" parent="1" vertex="1">
          <mxGeometry x="172.5" y="470" width="105" height="50" as="geometry" />
        </mxCell>
        <mxCell id="DtwPcJMlD-o3ZfyWHkww-8" value="" style="endArrow=none;html=1;rounded=0;edgeStyle=orthogonalEdgeStyle;fillColor=#dae8fc;strokeColor=#6c8ebf;" parent="1" source="icmjAIZ1aDsR7eF-hHrB-81" target="DtwPcJMlD-o3ZfyWHkww-7" edge="1">
          <mxGeometry relative="1" as="geometry">
            <mxPoint x="225" y="555" as="sourcePoint" />
            <mxPoint x="225" y="440" as="targetPoint" />
          </mxGeometry>
        </mxCell>
        <mxCell id="tD3QRTbrXEDpXQR9bQmA-4" value="&lt;span&gt;Вход/выход из общежития&lt;/span&gt;" style="rounded=0;whiteSpace=wrap;html=1;fillColor=#f8cecc;strokeColor=#b85450;" vertex="1" parent="1">
          <mxGeometry x="-90" y="260" width="90" height="40" as="geometry" />
        </mxCell>
        <mxCell id="tD3QRTbrXEDpXQR9bQmA-8" value="" style="html=1;dashed=0;whitespace=wrap;shape=partialRectangle;right=0;" vertex="1" parent="1">
          <mxGeometry x="-95" y="340" width="100" height="30" as="geometry" />
        </mxCell>
      </root>
    </mxGraphModel>
  </diagram>
</mxfile>
